# xmcd CD database file
#
# Track frame offsets:
#	150
#	17878
#	36490
#	52193
#	69091
#	81456
#	97965
#	114716
#	133886
#	148647
#	164867
#	177084
#	192442
#	210395
#	228704
#	243976
#	261695
#	277832
#
# Disc length: 3924 seconds
#
# Revision: 0
# Processed by: cddbd v1.5.1PL2 Copyright (c) Steve Scherf et al.
# Submitted via: CDex 1.51
#
DISCID=180f5212
DTITLE=Promo Only Canada - June 2005 Country Radio
DYEAR=2005
DGENRE=Country
TTITLE0=Tim McGraw - Do You Want Fries With That
TTITLE1=Josh Gracin - Stay With Me (Brass Bed)
TTITLE2=Shania Twain - I Ain't No Quitter (Greatest Hits Version)
TTITLE3=Blue County - That Summer Song
TTITLE4=Steve Azar - Doin' It Right (Album Version)
TTITLE5=Lee Ann Womack - He Oughta Know That By Now (Album Version)
TTITLE6=Shooter Jennings - 4th Of July
TTITLE7=Trisha Yearwood - Georgia Rain (Radio Edit)
TTITLE8=Cowboy Troy - I Play Chicken With The Train
TTITLE9=Ryan Shupe and The Rubberband - Dream Big
TTITLE10=Billy Dean - This Is The Life
TTITLE11=Cowboy Crush - Nobody Ever Died Of A Broken Heart (Single Version)
TTITLE12=Boondocks - Little Big Town
TTITLE13=Billy Currington - Must Be Doin' Somethin' Right (Edit)
TTITLE14=Tracy Byrd - Tiny Town
TTITLE15=Montgomery Gentry - Something To Be Proud Of
TTITLE16=Jason Aldean - Hicktown
TTITLE17=Craig Morgan - Redneck Yacht Club
EXTD=YEAR: 2005
EXTT0=
EXTT1=
EXTT2=
EXTT3=
EXTT4=
EXTT5=
EXTT6=
EXTT7=
EXTT8=
EXTT9=
EXTT10=
EXTT11=
EXTT12=
EXTT13=
EXTT14=
EXTT15=
EXTT16=
EXTT17=
PLAYORDER=
